<svg id="b13a5204-d5b3-4a75-94c5-4076694c9731" data-name="Layer 1" xmlns="http://www.w3.org/2000/svg" viewBox="0 0 200 200"><path d="M44.64889,20.55481A96.23668,96.23668,0,0,1,75.624,6.2572l1.51929-.39551-.79077-3.03906-1.519.39478A99.38044,99.38044,0,0,0,42.85055,17.97986L41.5632,18.879l1.79809,2.5747Z"/><rect x="108.24167" y="0.00012" width="38.00146" height="3.14014"/><path d="M6.24313,75.67541a96.23958,96.23958,0,0,1,14.282-30.98535l.89795-1.28808-2.57544-1.79639-.89843,1.28711A99.393,99.393,0,0,0,3.20358,74.88684l-.39453,1.52,3.03955.78857Z"/><rect x="-0.00052" y="108.29553" width="3.14014" height="38.00146"/><polygon points="200 0 199.999 0 196.859 0 178.018 0 178.018 3.14 196.859 3.14 196.859 196.86 3.14 196.86 3.14 178.018 -0.001 178.018 -0.001 196.86 -0.001 200 3.14 200 199.999 200 199.999 3.14 200 3.14 200 0"/><path d="M139.061,44.00305a11.20769,11.20769,0,0,0-.77392-4.21777,9.01258,9.01258,0,0,0-2.24244-3.28321,10.18117,10.18117,0,0,0-3.60327-2.10888,14.66794,14.66794,0,0,0-4.85815-.74707H115.03805V69.62659h2.509V54.51916h9.76928l9.18213,15.10743h2.77588l-9.34228-15.3208a11.37283,11.37283,0,0,0,6.64624-3.33643A9.76024,9.76024,0,0,0,139.061,44.00305Zm-4.99121,6.08545a10.01622,10.01622,0,0,1-6.86011,2.18848h-9.66259V35.88782h10.03613q4.43079,0,6.7,2.16211a7.8345,7.8345,0,0,1,2.2688,5.95312A7.68866,7.68866,0,0,1,134.06979,50.0885Z"/><polygon points="167.248 35.888 167.248 33.646 146.214 33.646 146.214 69.627 167.568 69.627 167.568 67.439 148.724 67.439 148.724 52.224 166.073 52.224 166.073 49.982 148.724 49.982 148.724 35.888 167.248 35.888"/><path d="M137.75461,106.28674a6.55234,6.55234,0,0,0,.93164,1.38135,6.31983,6.31983,0,0,0,1.26538,1.11523,6.48831,6.48831,0,0,0,1.53076.74854,5.34438,5.34438,0,0,0,1.731.2832,6.61385,6.61385,0,0,0,2.67968-.53271,5.563,5.563,0,0,0,2.09693-1.61426,7.72935,7.72935,0,0,0,1.36474-2.67969,12.95573,12.95573,0,0,0,.48267-3.72851,11.912,11.912,0,0,0-.39942-3.11182,8.202,8.202,0,0,0-1.18188-2.59619,5.75759,5.75759,0,0,0-1.96387-1.76465,5.54369,5.54369,0,0,0-2.71264-.64892,6.083,6.083,0,0,0-1.93091.29931,7.64942,7.64942,0,0,0-1.66382.78272,8.14412,8.14412,0,0,0-1.34814,1.04882,8.60586,8.60586,0,0,0-.949,1.06446v-9.353H135.457v22.53516h1.76465Zm-.0669-8.12207a7.67751,7.67751,0,0,1,2.36328-2.19629,5.94118,5.94118,0,0,1,3.09595-.833A4.02359,4.02359,0,0,1,146.3757,96.65a7.0833,7.0833,0,0,1,1.26465,4.60987,10.21953,10.21953,0,0,1-.39917,3.0791,5.84282,5.84282,0,0,1-1.06543,2.03125,3.94761,3.94761,0,0,1-1.53076,1.13135,4.764,4.764,0,0,1-1.79786.34961,4.61783,4.61783,0,0,1-2.03076-.44922,5.08208,5.08208,0,0,1-1.63086-1.24854,5.91764,5.91764,0,0,1-1.09839-1.897,6.96479,6.96479,0,0,1-.39941-2.39649Z"/><path d="M153.86447,93.43762v9.81983q0,3.26293,1.415,4.76025a5.07678,5.07678,0,0,0,3.87793,1.498,5.622,5.622,0,0,0,1.96411-.33252,6.41443,6.41443,0,0,0,1.61426-.86621,7.75138,7.75138,0,0,0,1.248-1.14795,9.23715,9.23715,0,0,0,.89844-1.21534v2.43018a10.39289,10.39289,0,0,1-.33227,2.8457,4.36933,4.36933,0,0,1-.98267,1.83106,3.70393,3.70393,0,0,1-1.58057.98193,7.09473,7.09473,0,0,1-2.16382.29981,9.57933,9.57933,0,0,1-2.54589-.3335,9.246,9.246,0,0,1-2.14722-.86475q-.13331.39918-.31665.86475-.18274.46656-.31567.89893a8.0848,8.0848,0,0,0,2.39624.99853,11.84276,11.84276,0,0,0,3.06225.3999,7.037,7.037,0,0,0,5.30908-1.94775q1.8805-1.94678,1.88111-5.94141V93.43762h-2.26392v10.68555a8.5051,8.5051,0,0,1-.94824,1.28174,7.27255,7.27255,0,0,1-1.23145,1.09814,6.39144,6.39144,0,0,1-1.4978.78223,5.02627,5.02627,0,0,1-1.74805.29931,3.04276,3.04276,0,0,1-2.52929-1.13134,5.02,5.02,0,0,1-.89917-3.1958V93.43762Z"/><path d="M107.778,143.4928q0-.69288-.02636-1.54785-.02784-.85254-.08033-1.73536-.0542-.88036-.13379-1.73437c-.05322-.56934-.09863-1.08545-.133-1.54883h.10669q.16.48193.42675,1.17481.267.69433.5337,1.415.26659.72.56054,1.3877.2926.668.50733,1.14746L119.84274,163.192h2.456l10.30274-21.14063q.21313-.47973.50781-1.14746.29225-.66651.56055-1.3877.26586-.72069.53369-1.415.2666-.69288.42676-1.17481h.10669q-.10767.69507-.15992,1.54883-.05455.854-.10693,1.73437-.05419.88184-.08032,1.73536-.02746.85473-.02637,1.54785v25.89209h2.45532V133.40344h-2.5625L123.36593,156.0387q-.74706,1.49487-1.30786,2.85546-.55993,1.36231-.93408,2.32276h-.10645q-.37462-.96094-.93432-2.32276-.561-1.3601-1.30811-2.85546l-10.89038-22.63526h-2.5625v35.98145H107.778Z"/><polygon points="167.568 167.196 148.724 167.196 148.724 151.982 166.073 151.982 166.073 149.739 148.724 149.739 148.724 135.645 167.248 135.645 167.248 133.403 146.214 133.403 146.214 169.385 167.568 169.385 167.568 167.196"/></svg>